<svg width="54" height="17" viewBox="0 0 54 17" fill="none" xmlns="http://www.w3.org/2000/svg">
<path d="M24.5636 5.43971C25.2575 5.97231 26.1259 6.28889 27.0682 6.28889C28.1561 6.28889 29.1455 5.8669 29.8815 5.17767L35.8609 0.833212C36.3705 0.463008 36.935 0.223273 37.5146 0.107694C38.6602 -0.155295 39.9091 0.0586451 40.9363 0.801674L52.2518 8.98704C54.1415 10.354 54.5653 12.994 53.1983 14.8837C51.8314 16.7734 49.1913 17.1972 47.3016 15.8303L40.9347 11.2246C40.9325 11.2264 40.9304 11.2282 40.9282 11.2299C40.2328 10.6929 39.3607 10.3734 38.4141 10.3734C37.39 10.3734 36.4531 10.7474 35.7328 11.3662L29.5271 15.8751C28.1307 16.8897 26.3212 16.9243 24.9192 16.1089C24.7692 16.0261 24.6225 15.9333 24.4801 15.8303L18.0786 11.1996C18.0767 11.2012 18.0749 11.2027 18.073 11.2043C17.3832 10.6827 16.524 10.3734 15.5926 10.3734C14.5684 10.3734 13.6316 10.7474 12.9112 11.3663L6.70554 15.8751C4.81871 17.246 2.17779 16.8278 0.80687 14.941C-0.564061 13.0541 -0.145822 10.4132 1.74101 9.04229L13.0394 0.833212C13.5489 0.463008 14.1134 0.223274 14.6931 0.107695C15.8387 -0.155294 17.0875 0.0586451 18.1147 0.801674L24.5463 5.45409C24.552 5.44928 24.5578 5.44448 24.5636 5.43971Z" fill="#025567"/>
<path d="M27.0683 6.28889C26.126 6.28889 25.2577 5.97231 24.5638 5.43971L24.5464 5.45409L18.1149 0.801674C17.0877 0.0586451 15.8388 -0.155294 14.6932 0.107695C14.1136 0.223274 13.5491 0.463008 13.0395 0.833212L4.37646 7.13173C7.97475 5.5433 12.2214 6.28889 16.2087 9.82234C16.6492 10.2127 18.0769 11.2012 18.0787 11.1996L24.4802 15.8303C24.6226 15.9333 24.7693 16.0261 24.9194 16.1089C26.3214 16.9243 28.1308 16.8897 29.5272 15.8751L37.8956 9.82234C40.9364 7.58557 45.2867 5.43971 49.5333 7.00207L40.9364 0.801674C39.9092 0.0586451 38.6603 -0.155295 37.5148 0.107694C36.9351 0.223273 36.3706 0.463008 35.8611 0.833212L29.8817 5.17767C29.1456 5.8669 28.1563 6.28889 27.0683 6.28889Z" fill="#0EC5DE"/>
<path d="M27.0033 6.28889C26.061 6.28889 25.1927 5.97231 24.4988 5.43971L24.4814 5.45409L18.0499 0.801674C17.0227 0.0586451 15.7738 -0.155294 14.6282 0.107695C14.0486 0.223274 13.4841 0.463008 12.9745 0.833212L7.8125 4.63563C8.91468 4.40871 9.66027 4.63563 10.8273 5.64055C11.1809 5.94507 18.0119 11.2012 18.0137 11.1996L24.4152 15.8303C24.5576 15.9333 24.7043 16.0261 24.8544 16.1089C26.2564 16.9243 28.0658 16.8897 29.4623 15.8751L35.8856 11.3135L43.5128 5.66085C44.5085 4.9598 45.3838 4.63563 46.5832 4.89496L40.8714 0.801674C39.8442 0.0586451 38.5954 -0.155295 37.4498 0.107694C36.8701 0.223273 36.3056 0.463008 35.7961 0.833212L29.8167 5.17767C29.0806 5.8669 28.0913 6.28889 27.0033 6.28889Z" fill="#0EC5DE"/>
</svg>
