<svg width="150" height="150" viewBox="0 0 150 150" fill="none" xmlns="http://www.w3.org/2000/svg">
<rect width="150" height="150" rx="30" fill="#182436"/>
<path d="M68.316 67.0216C70.1045 68.3944 72.3429 69.2105 74.7718 69.2105C77.5761 69.2105 80.1263 68.1227 82.0236 66.3461L97.4363 55.1477C98.7496 54.1935 100.205 53.5755 101.699 53.2776C104.652 52.5997 107.871 53.1512 110.519 55.0664L139.686 76.1653C144.557 79.6888 145.649 86.4939 142.126 91.3648C138.602 96.2358 131.797 97.3281 126.926 93.8046L110.515 81.9329C110.509 81.9375 110.503 81.9421 110.498 81.9467C108.705 80.5624 106.457 79.7389 104.017 79.7389C101.378 79.7389 98.9627 80.7028 97.1059 82.298L81.11 93.9202C77.5105 96.5354 72.8464 96.6247 69.2326 94.5229C68.8458 94.3094 68.4677 94.0701 68.1006 93.8046L51.5999 81.8685C51.5951 81.8725 51.5904 81.8764 51.5856 81.8804C49.8074 80.5362 47.5928 79.7389 45.1919 79.7389C42.552 79.7389 40.1372 80.7029 38.2803 82.298L22.2844 93.9202C17.4209 97.4539 10.6135 96.3759 7.07981 91.5123C3.54606 86.6487 4.62412 79.8414 9.48768 76.3077L38.6107 55.1477C39.9241 54.1935 41.3792 53.5755 42.8733 53.2776C45.8262 52.5997 49.0454 53.1512 51.693 55.0664L68.2712 67.0586C68.2861 67.0462 68.301 67.0339 68.316 67.0216Z" fill="#025567"/>
<path d="M74.7719 69.2105C72.343 69.2105 70.1047 68.3944 68.3161 67.0216L68.2713 67.0586L51.6932 55.0664C49.0455 53.1512 45.8263 52.5997 42.8734 53.2776C41.3793 53.5755 39.9242 54.1935 38.6108 55.1477L16.2806 71.383C25.5557 67.2886 36.5019 69.2104 46.7797 78.3184C47.9152 79.3246 51.5953 81.8725 51.6 81.8685L68.1007 93.8046C68.4678 94.0701 68.8459 94.3095 69.2327 94.5229C72.8465 96.6247 77.5107 96.5354 81.1101 93.9202L102.681 78.3184C110.519 72.5528 121.732 67.0216 132.678 71.0487L110.519 55.0664C107.871 53.1512 104.652 52.5997 101.699 53.2776C100.205 53.5755 98.7497 54.1935 97.4364 55.1477L82.0237 66.3461C80.1264 68.1227 77.5762 69.2105 74.7719 69.2105Z" fill="#0EC5DE"/>
<path d="M74.6046 69.2105C72.1757 69.2105 69.9373 68.3944 68.1488 67.0216L68.104 67.0586L51.5258 55.0664C48.8782 53.1512 45.659 52.5997 42.7061 53.2776C41.212 53.5755 39.7569 54.1935 38.4435 55.1477L25.1377 64.9489C27.9787 64.364 29.9006 64.9489 32.9087 67.5393C33.8202 68.3242 51.428 81.8725 51.4327 81.8685L67.9334 93.8046C68.3005 94.0701 68.6786 94.3095 69.0654 94.5229C72.6792 96.6247 77.3433 96.5354 80.9428 93.9202L97.4998 82.1621L117.16 67.5916C119.727 65.7845 121.983 64.9489 125.074 65.6174L110.351 55.0664C107.704 53.1512 104.485 52.5997 101.532 53.2776C100.038 53.5755 98.5824 54.1935 97.269 55.1477L81.8564 66.3461C79.9591 68.1227 77.4089 69.2105 74.6046 69.2105Z" fill="#0EC5DE"/>
</svg>
