<svg width="24" height="24" viewBox="0 0 24 24" fill="none" xmlns="http://www.w3.org/2000/svg">
<path d="M6.477 4.0305C7.851 3.4065 9.804 3 12 3C14.196 3 16.149 3.405 17.523 4.0305C18.966 4.6875 19.5 5.4405 19.5 6C19.5 6.561 18.966 7.3125 17.523 7.9695C16.149 8.5935 14.196 9 12 9C9.804 9 7.851 8.595 6.477 7.9695C5.034 7.3125 4.5 6.5595 4.5 6C4.5 5.439 5.034 4.6875 6.477 4.0305ZM19.5 8.547V10.5C19.5 11.061 18.966 11.8125 17.523 12.4695C16.149 13.0935 14.196 13.5 12 13.5C9.804 13.5 7.851 13.095 6.477 12.4695C5.034 11.8125 4.5 11.0595 4.5 10.5V8.547C4.9065 8.85 5.37 9.114 5.856 9.3345C7.467 10.0665 9.6405 10.5 12 10.5C14.3595 10.5 16.533 10.0665 18.144 9.3345C18.6227 9.1209 19.0772 8.85691 19.5 8.547ZM21 6C21 4.4895 19.6875 3.3675 18.144 2.6655C16.533 1.9335 14.3595 1.5 12 1.5C9.6405 1.5 7.467 1.9335 5.856 2.6655C4.3125 3.3675 3 4.4895 3 6V19.5C3 21.0105 4.3125 22.1325 5.856 22.8345C7.467 23.565 9.6405 24 12 24C14.3595 24 16.533 23.5665 18.144 22.8345C19.6875 22.1325 21 21.0105 21 19.5V6ZM19.5 13.047V15C19.5 15.561 18.966 16.3125 17.523 16.9695C16.149 17.5935 14.196 18 12 18C9.804 18 7.851 17.595 6.477 16.9695C5.034 16.3125 4.5 15.5595 4.5 15V13.047C4.9065 13.35 5.37 13.614 5.856 13.8345C7.467 14.565 9.6405 15 12 15C14.3595 15 16.533 14.5665 18.144 13.8345C18.6227 13.6209 19.0772 13.3569 19.5 13.047ZM19.5 17.547V19.5C19.5 20.061 18.966 20.8125 17.523 21.4695C16.149 22.0935 14.196 22.5 12 22.5C9.804 22.5 7.851 22.095 6.477 21.4695C5.034 20.8125 4.5 20.0595 4.5 19.5V17.547C4.9065 17.85 5.37 18.114 5.856 18.3345C7.467 19.065 9.6405 19.5 12 19.5C14.3595 19.5 16.533 19.0665 18.144 18.3345C18.63 18.114 19.0935 17.85 19.5 17.547Z" fill="#0EC5DE"/>
</svg>
