<svg width="20" height="20" viewBox="0 0 20 20" fill="none" xmlns="http://www.w3.org/2000/svg">
<path d="M5.00016 4.99984C5.00016 4.55781 5.17576 4.13389 5.48832 3.82133C5.80088 3.50877 6.2248 3.33317 6.66683 3.33317C6.88784 3.33317 7.0998 3.24537 7.25608 3.08909C7.41236 2.93281 7.50016 2.72085 7.50016 2.49984C7.50016 2.27882 7.41236 2.06686 7.25608 1.91058C7.0998 1.7543 6.88784 1.6665 6.66683 1.6665C5.78277 1.6665 4.93493 2.01769 4.30981 2.64281C3.68469 3.26794 3.3335 4.11578 3.3335 4.99984V7.49984C3.3335 7.94186 3.1579 8.36579 2.84534 8.67835C2.53278 8.99091 2.10886 9.1665 1.66683 9.1665C1.44582 9.1665 1.23385 9.2543 1.07757 9.41058C0.921293 9.56686 0.833496 9.77882 0.833496 9.99984C0.833496 10.2209 0.921293 10.4328 1.07757 10.5891C1.23385 10.7454 1.44582 10.8332 1.66683 10.8332C2.10886 10.8332 2.53278 11.0088 2.84534 11.3213C3.1579 11.6339 3.3335 12.0578 3.3335 12.4998V14.9998C3.3335 15.8839 3.68469 16.7317 4.30981 17.3569C4.93493 17.982 5.78277 18.3332 6.66683 18.3332C6.88784 18.3332 7.0998 18.2454 7.25608 18.0891C7.41236 17.9328 7.50016 17.7209 7.50016 17.4998C7.50016 17.2788 7.41236 17.0669 7.25608 16.9106C7.0998 16.7543 6.88784 16.6665 6.66683 16.6665C6.2248 16.6665 5.80088 16.4909 5.48832 16.1783C5.17576 15.8658 5.00016 15.4419 5.00016 14.9998V12.4998C4.99748 12.0253 4.89351 11.5568 4.69518 11.1256C4.49686 10.6945 4.20876 10.3107 3.85016 9.99984C4.20876 9.689 4.49686 9.30518 4.69518 8.87405C4.89351 8.44291 4.99748 7.97439 5.00016 7.49984V4.99984ZM18.3335 9.1665C17.8915 9.1665 17.4675 8.99091 17.155 8.67835C16.8424 8.36579 16.6668 7.94186 16.6668 7.49984V4.99984C16.6668 4.11578 16.3156 3.26794 15.6905 2.64281C15.0654 2.01769 14.2176 1.6665 13.3335 1.6665C13.1125 1.6665 12.9005 1.7543 12.7442 1.91058C12.588 2.06686 12.5002 2.27882 12.5002 2.49984C12.5002 2.72085 12.588 2.93281 12.7442 3.08909C12.9005 3.24537 13.1125 3.33317 13.3335 3.33317C13.7755 3.33317 14.1994 3.50877 14.512 3.82133C14.8246 4.13389 15.0002 4.55781 15.0002 4.99984V7.49984C15.0028 7.97439 15.1068 8.44291 15.3051 8.87405C15.5035 9.30518 15.7916 9.689 16.1502 9.99984C15.7916 10.3107 15.5035 10.6945 15.3051 11.1256C15.1068 11.5568 15.0028 12.0253 15.0002 12.4998V14.9998C15.0002 15.4419 14.8246 15.8658 14.512 16.1783C14.1994 16.4909 13.7755 16.6665 13.3335 16.6665C13.1125 16.6665 12.9005 16.7543 12.7442 16.9106C12.588 17.0669 12.5002 17.2788 12.5002 17.4998C12.5002 17.7209 12.588 17.9328 12.7442 18.0891C12.9005 18.2454 13.1125 18.3332 13.3335 18.3332C14.2176 18.3332 15.0654 17.982 15.6905 17.3569C16.3156 16.7317 16.6668 15.8839 16.6668 14.9998V12.4998C16.6668 12.0578 16.8424 11.6339 17.155 11.3213C17.4675 11.0088 17.8915 10.8332 18.3335 10.8332C18.5545 10.8332 18.7665 10.7454 18.9228 10.5891C19.079 10.4328 19.1668 10.2209 19.1668 9.99984C19.1668 9.77882 19.079 9.56686 18.9228 9.41058C18.7665 9.2543 18.5545 9.1665 18.3335 9.1665Z" fill="#0EC5DE"/>
</svg>
