<svg width="29" height="29" viewBox="0 0 29 29" fill="none" xmlns="http://www.w3.org/2000/svg">
<path d="M14.5 19.0312C17.0025 19.0312 19.0312 17.0025 19.0312 14.5C19.0312 11.9975 17.0025 9.96875 14.5 9.96875C11.9975 9.96875 9.96875 11.9975 9.96875 14.5C9.96875 17.0025 11.9975 19.0312 14.5 19.0312Z" stroke="#FDFFFF" stroke-width="1.5" stroke-miterlimit="10"/>
<path d="M19.4844 4.07812H9.51562C6.51258 4.07812 4.07812 6.51258 4.07812 9.51562V19.4844C4.07812 22.4874 6.51258 24.9219 9.51562 24.9219H19.4844C22.4874 24.9219 24.9219 22.4874 24.9219 19.4844V9.51562C24.9219 6.51258 22.4874 4.07812 19.4844 4.07812Z" stroke="#FDFFFF" stroke-width="1.5" stroke-linecap="round" stroke-linejoin="round"/>
<path d="M20.3906 9.96875C21.1414 9.96875 21.75 9.36014 21.75 8.60938C21.75 7.85861 21.1414 7.25 20.3906 7.25C19.6399 7.25 19.0312 7.85861 19.0312 8.60938C19.0312 9.36014 19.6399 9.96875 20.3906 9.96875Z" fill="#FDFFFF"/>
</svg>
