<svg width="15" height="37" viewBox="0 0 15 37" fill="none" xmlns="http://www.w3.org/2000/svg">
<path d="M9.375 7.4C9.375 6.4187 9.77009 5.47759 10.4733 4.7837C11.1766 4.08982 12.1304 3.7 13.125 3.7C13.6223 3.7 14.0992 3.50509 14.4508 3.15815C14.8025 2.81121 15 2.34065 15 1.85C15 1.35935 14.8025 0.888795 14.4508 0.541852C14.0992 0.19491 13.6223 0 13.125 0C11.1359 0 9.22822 0.779641 7.8217 2.16741C6.41518 3.55518 5.625 5.4374 5.625 7.4V12.95C5.625 13.9313 5.22991 14.8724 4.52665 15.5663C3.82339 16.2602 2.86956 16.65 1.875 16.65C1.37772 16.65 0.900805 16.8449 0.549175 17.1919C0.197544 17.5388 0 18.0093 0 18.5C0 18.9907 0.197544 19.4612 0.549175 19.8081C0.900805 20.1551 1.37772 20.35 1.875 20.35C2.86956 20.35 3.82339 20.7398 4.52665 21.4337C5.22991 22.1276 5.625 23.0687 5.625 24.05V29.6C5.625 31.5626 6.41518 33.4448 7.8217 34.8326C9.22822 36.2204 11.1359 37 13.125 37C13.6223 37 14.0992 36.8051 14.4508 36.4581C14.8025 36.1112 15 35.6407 15 35.15C15 34.6594 14.8025 34.1888 14.4508 33.8419C14.0992 33.4949 13.6223 33.3 13.125 33.3C12.1304 33.3 11.1766 32.9102 10.4733 32.2163C9.77009 31.5224 9.375 30.5813 9.375 29.6V24.05C9.36897 22.9965 9.13503 21.9564 8.6888 20.9993C8.24257 20.0421 7.59435 19.19 6.7875 18.5C7.59435 17.81 8.24257 16.9579 8.6888 16.0007C9.13503 15.0436 9.36897 14.0035 9.375 12.95V7.4Z" fill="#0EC5DE"/>
</svg>
