<svg width="28" height="29" viewBox="0 0 28 29" fill="none" xmlns="http://www.w3.org/2000/svg">
<path d="M14 25.375C19.799 25.375 24.5 20.5061 24.5 14.5C24.5 8.4939 19.799 3.625 14 3.625C8.20101 3.625 3.5 8.4939 3.5 14.5C3.5 20.5061 8.20101 25.375 14 25.375Z" stroke="#FDFFFF" stroke-width="1.5" stroke-miterlimit="10"/>
<path d="M7.76855 23.2536C9.32605 20.5812 11.5239 18.371 14.1489 16.8373C16.7739 15.3036 19.737 14.4985 22.7509 14.5C23.3411 14.5 23.9241 14.5298 24.4998 14.5894" stroke="#FDFFFF" stroke-width="1.5" stroke-linecap="round" stroke-linejoin="round"/>
<path d="M20.5655 6.01416C18.926 8.10133 16.8575 9.7834 14.5108 10.9378C12.1641 12.0922 9.59837 12.6899 7.00044 12.6872C5.89386 12.6878 4.7897 12.5802 3.70264 12.3659" stroke="#FDFFFF" stroke-width="1.5" stroke-linecap="round" stroke-linejoin="round"/>
<path d="M9.39844 4.72217C12.0299 6.32133 14.2117 8.60554 15.7273 11.348C17.2429 14.0905 18.0396 17.1959 18.0383 20.3558C18.0393 21.8364 17.8655 23.3116 17.5208 24.7485" stroke="#FDFFFF" stroke-width="1.5" stroke-linecap="round" stroke-linejoin="round"/>
</svg>
