<svg width="24" height="26" viewBox="0 0 24 26" fill="none" xmlns="http://www.w3.org/2000/svg">
<path d="M2 9.69186C1.99947 8.84296 2.15435 8.00228 2.45577 7.21797C2.75718 6.43365 3.19921 5.72111 3.75655 5.12115C4.31388 4.52118 4.97558 4.04557 5.70373 3.72156C6.43189 3.39755 7.2122 3.2315 8 3.23292H16C19.313 3.23292 22 6.13697 22 9.69186V22.6291H8C4.687 22.6291 2 19.7251 2 16.1702V9.69186ZM20 20.474V9.69186C19.9974 8.55018 19.5749 7.45617 18.8251 6.64948C18.0754 5.84279 17.0595 5.38919 16 5.38806H8C7.47485 5.38664 6.9546 5.49694 6.4691 5.71265C5.98359 5.92835 5.54238 6.24521 5.17076 6.64505C4.79914 7.0449 4.50443 7.51986 4.30353 8.0427C4.10262 8.56554 3.99947 9.12598 4 9.69186V16.1702C4.00265 17.3119 4.42511 18.4059 5.17486 19.2126C5.9246 20.0193 6.9405 20.4729 8 20.474H20ZM14 11.8535H16V14.0086H14V11.8535ZM8 11.8535H10V14.0086H8V11.8535Z" fill="#0EC5DE"/>
</svg>
