<svg width="15" height="37" viewBox="0 0 15 37" fill="none" xmlns="http://www.w3.org/2000/svg">
<path d="M13.125 16.65C12.1304 16.65 11.1766 16.2602 10.4734 15.5663C9.77009 14.8724 9.375 13.9313 9.375 12.95V7.4C9.375 5.4374 8.58482 3.55518 7.1783 2.16741C5.77178 0.779641 3.86412 0 1.875 0C1.37772 0 0.900806 0.19491 0.549176 0.541852C0.197545 0.888795 0 1.35935 0 1.85C0 2.34065 0.197545 2.81121 0.549176 3.15815C0.900806 3.50509 1.37772 3.7 1.875 3.7C2.86956 3.7 3.82339 4.08982 4.52665 4.7837C5.22991 5.47759 5.625 6.4187 5.625 7.4V12.95C5.63103 14.0035 5.86497 15.0436 6.3112 16.0007C6.75743 16.9579 7.40565 17.81 8.2125 18.5C7.40565 19.19 6.75743 20.0421 6.3112 20.9993C5.86497 21.9564 5.63103 22.9965 5.625 24.05V29.6C5.625 30.5813 5.22991 31.5224 4.52665 32.2163C3.82339 32.9102 2.86956 33.3 1.875 33.3C1.37772 33.3 0.900806 33.4949 0.549176 33.8419C0.197545 34.1888 0 34.6594 0 35.15C0 35.6407 0.197545 36.1112 0.549176 36.4581C0.900806 36.8051 1.37772 37 1.875 37C3.86412 37 5.77178 36.2204 7.1783 34.8326C8.58482 33.4448 9.375 31.5626 9.375 29.6V24.05C9.375 23.0687 9.77009 22.1276 10.4734 21.4337C11.1766 20.7398 12.1304 20.35 13.125 20.35C13.6223 20.35 14.0992 20.1551 14.4508 19.8081C14.8025 19.4612 15 18.9907 15 18.5C15 18.0093 14.8025 17.5388 14.4508 17.1919C14.0992 16.8449 13.6223 16.65 13.125 16.65Z" fill="#0EC5DE"/>
</svg>
