<svg width="20" height="20" viewBox="0 0 20 20" fill="none" xmlns="http://www.w3.org/2000/svg">
<path fill-rule="evenodd" clip-rule="evenodd" d="M9.0125 1C9.6125 0.36875 10 0 10 0C10.1363 0.45375 10.2925 0.885 10.4638 1.2975C11.4788 3.73 13.055 5.485 14.46 7.0475C16.0975 8.87 17.5 10.4312 17.5 12.5C17.5 14.4891 16.7098 16.3968 15.3033 17.8033C13.8968 19.2098 11.9891 20 10 20C8.01088 20 6.10322 19.2098 4.6967 17.8033C3.29018 16.3968 2.5 14.4891 2.5 12.5C2.5 8.335 6.975 3.14625 9.0125 1ZM9.52875 2.27625C8.72601 3.14492 7.96314 4.0496 7.2425 4.9875C6.335 6.175 5.4475 7.4975 4.7925 8.825C4.13 10.1663 3.75 11.4225 3.75 12.5C3.75 14.1576 4.40848 15.7473 5.58058 16.9194C6.75269 18.0915 8.3424 18.75 10 18.75C11.6576 18.75 13.2473 18.0915 14.4194 16.9194C15.5915 15.7473 16.25 14.1576 16.25 12.5C16.25 10.9987 15.255 9.80375 13.5238 7.875L13.4862 7.835C12.1875 6.3875 10.625 4.65125 9.52875 2.27625Z" fill="#0EC5DE"/>
<path fill-rule="evenodd" clip-rule="evenodd" d="M5.69141 9.72012C6.71641 7.66887 7.83766 6.27887 8.30766 5.80762L9.19266 6.69262C8.83016 7.05512 7.78266 8.33137 6.80891 10.2801L5.69141 9.72012Z" fill="#0EC5DE"/>
</svg>
