<svg width="20" height="20" viewBox="0 0 20 20" fill="none" xmlns="http://www.w3.org/2000/svg">
<path d="M5.3975 3.35875C6.5425 2.83875 8.17 2.5 10 2.5C11.83 2.5 13.4575 2.8375 14.6025 3.35875C15.805 3.90625 16.25 4.53375 16.25 5C16.25 5.4675 15.805 6.09375 14.6025 6.64125C13.4575 7.16125 11.83 7.5 10 7.5C8.17 7.5 6.5425 7.1625 5.3975 6.64125C4.195 6.09375 3.75 5.46625 3.75 5C3.75 4.5325 4.195 3.90625 5.3975 3.35875ZM16.25 7.1225V8.75C16.25 9.2175 15.805 9.84375 14.6025 10.3912C13.4575 10.9113 11.83 11.25 10 11.25C8.17 11.25 6.5425 10.9125 5.3975 10.3912C4.195 9.84375 3.75 9.21625 3.75 8.75V7.1225C4.08875 7.375 4.475 7.595 4.88 7.77875C6.2225 8.38875 8.03375 8.75 10 8.75C11.9662 8.75 13.7775 8.38875 15.12 7.77875C15.5189 7.60075 15.8977 7.38076 16.25 7.1225ZM17.5 5C17.5 3.74125 16.4062 2.80625 15.12 2.22125C13.7775 1.61125 11.9662 1.25 10 1.25C8.03375 1.25 6.2225 1.61125 4.88 2.22125C3.59375 2.80625 2.5 3.74125 2.5 5V16.25C2.5 17.5088 3.59375 18.4438 4.88 19.0287C6.2225 19.6375 8.03375 20 10 20C11.9662 20 13.7775 19.6388 15.12 19.0287C16.4062 18.4438 17.5 17.5088 17.5 16.25V5ZM16.25 10.8725V12.5C16.25 12.9675 15.805 13.5938 14.6025 14.1412C13.4575 14.6613 11.83 15 10 15C8.17 15 6.5425 14.6625 5.3975 14.1412C4.195 13.5938 3.75 12.9663 3.75 12.5V10.8725C4.08875 11.125 4.475 11.345 4.88 11.5287C6.2225 12.1375 8.03375 12.5 10 12.5C11.9662 12.5 13.7775 12.1387 15.12 11.5287C15.5189 11.3507 15.8977 11.1308 16.25 10.8725ZM16.25 14.6225V16.25C16.25 16.7175 15.805 17.3438 14.6025 17.8913C13.4575 18.4112 11.83 18.75 10 18.75C8.17 18.75 6.5425 18.4125 5.3975 17.8913C4.195 17.3438 3.75 16.7163 3.75 16.25V14.6225C4.08875 14.875 4.475 15.095 4.88 15.2787C6.2225 15.8875 8.03375 16.25 10 16.25C11.9662 16.25 13.7775 15.8887 15.12 15.2787C15.525 15.095 15.9113 14.875 16.25 14.6225Z" fill="#0EC5DE"/>
</svg>
