<svg width="22" height="22" viewBox="0 0 22 22" fill="none" xmlns="http://www.w3.org/2000/svg">
<path d="M15.7826 1H6.21739C3.33591 1 1 3.33591 1 6.21739V15.7826C1 18.6641 3.33591 21 6.21739 21H15.7826C18.6641 21 21 18.6641 21 15.7826V6.21739C21 3.33591 18.6641 1 15.7826 1Z" stroke="#0EC5DE" stroke-width="1.5" stroke-linecap="round" stroke-linejoin="round"/>
<path d="M9.26074 9.26123V16.2177" stroke="#0EC5DE" stroke-width="1.5" stroke-linecap="round" stroke-linejoin="round"/>
<path d="M5.78271 9.26123V16.2177" stroke="#0EC5DE" stroke-width="1.5" stroke-linecap="round" stroke-linejoin="round"/>
<path d="M9.26074 12.3047C9.26074 11.4975 9.58139 10.7234 10.1521 10.1526C10.7229 9.58188 11.497 9.26123 12.3042 9.26123C13.1114 9.26123 13.8855 9.58188 14.4562 10.1526C15.027 10.7234 15.3476 11.4975 15.3476 12.3047V16.2177" stroke="#0EC5DE" stroke-width="1.5" stroke-linecap="round" stroke-linejoin="round"/>
<path d="M5.78283 7.08716C6.50319 7.08716 7.08715 6.50319 7.08715 5.78284C7.08715 5.06248 6.50319 4.47852 5.78283 4.47852C5.06248 4.47852 4.47852 5.06248 4.47852 5.78284C4.47852 6.50319 5.06248 7.08716 5.78283 7.08716Z" fill="#0EC5DE"/>
</svg>
